# AST/ASF file generated using VICON BodyLanguage
# -----------------------------------------------
:version 1.10
:name VICON
:units
  mass 1.0
  length 0.45
  angle deg
:documentation
   .ast/.asf automatically generated from VICON data using
   VICON BodyBuilder and BodyLanguage model FoxedUp or BRILLIANT.MOD
:root
   order TX TY TZ RX RY RZ
   axis XYZ
   position 0 0 0  
   orientation 0 0 0 
:bonedata
  begin
     id 1 
     name lhipjoint
     direction 0.64773 -0.699417 0.302095 
     length 2.48597 
     axis 0 0 0  XYZ
  end
  begin
     id 2 
     name lfemur
     direction 0.34202 -0.939693 0  
     length 6.71947  
     axis 0 0 20  XYZ
    dof rx ry rz
    limits (-160.0 20.0)
           (-70.0 70.0)
           (-60.0 70.0)
  end
  begin
     id 3 
     name ltibia
     direction 0.34202 -0.939693 0   
     length 8.08777   
     axis 0 0 20   XYZ
    dof rx
    limits (-10.0 170.0)
  end
  begin
     id 4 
     name lfoot
     direction 0.0808503 -0.222134 0.971658   
     length 2.08264   
     axis -90 7.62852e-016 20   XYZ
    dof rx rz
    limits (-45.0 90.0)
           (-70.0 20.0)
  end
  begin
     id 5 
     name ltoes
     direction 1.53502e-011 -4.22007e-011 1   
     length 1.04662   
     axis -90 7.62852e-016 20   XYZ
    dof rx
    limits (-90.0 20.0)
  end
  begin
     id 6 
     name rhipjoint
     direction -0.610924 -0.726792 0.313919   
     length 2.39233  
     axis 0 0 0  XYZ 
  end
  begin
     id 7 
     name rfemur
     direction -0.34202 -0.939693 0   
     length 6.96955   
     axis 0 0 -20   XYZ
    dof rx ry rz
    limits (-160.0 20.0)
           (-70.0 70.0)
           (-70.0 60.0)
  end
  begin
     id 8 
     name rtibia
     direction -0.34202 -0.939693 0   
     length 8.19584   
     axis 0 0 -20   XYZ
    dof rx
    limits (-10.0 170.0)
 end
 begin
     id 9 
     name rfoot
     direction -0.077777 -0.213691 0.9738   
     length 2.07539  
     axis -90 -7.62852e-016 -20   XYZ
    dof rx rz
    limits (-45.0 90.0)
           (-20.0 70.0)
  end
  begin
     id 10 
     name rtoes
     direction -1.53558e-011 -4.22006e-011 1   
     length 1.04381   
     axis -90 -7.62852e-016 -20   XYZ
    dof rx
    limits (-90.0 20.0)
  end
  begin
     id 11 
     name lowerback
     direction -0.00971646 0.996074 0.0879841   
     length 1.67643   
     axis 0 0 0   XYZ
    dof rx ry rz
    limits (-20.0 45.0)
           (-30.0 30.0)
           (-30.0 30.0)
  end
  begin
     id 12 
     name upperback
     direction 0.0127391 0.991676 0.128127   
     length 1.63741   
     axis 0 0 0   XYZ
    dof rx ry rz
    limits (-20.0 45.0)
           (-30.0 30.0)
           (-30.0 30.0)
  end
  begin
     id 13 
     name thorax
     direction 0.0167583 0.996049 0.0872067   
     length 1.65931   
     axis 0 0 0   XYZ
    dof rx ry rz
    limits (-20.0 45.0)
           (-30.0 30.0)
           (-30.0 30.0)
  end
  begin
     id 14 
     name lowerneck
     direction -0.0317829 0.998312 0.0486079   
     length 1.79021   
     axis 0 0 0   XYZ
    dof rx ry rz
    limits (-20.0 45.0)
           (-30.0 30.0)
           (-30.0 30.0)
  end
  begin
     id 15 
     name upperneck
     direction 0.0896851 0.972452 -0.215159   
     length 1.78797   
     axis 0 0 0   XYZ
    dof rx ry rz
    limits (-20.0 45.0)
           (-30.0 30.0)
           (-30.0 30.0)
  end
  begin
     id 16
     name head
     direction 0.0310949 0.996503 -0.0775582  
     length 1.81549  
     axis 0 0 0   XYZ
    dof rx ry rz
    limits (-20.0 45.0)
           (-30.0 30.0)
           (-30.0 30.0)
  end
  begin
     id 17 
     name lclavicle
     direction 0.853638 0.502051 -0.138733  
     length 3.31627  
     axis 0 0 0   XYZ
    dof ry rz
    limits (-20.0 10.0)
           (0.0 20.0)
  end
  begin
     id 18 
     name lhumerus
     direction 1 -4.48962e-011 -1.41788e-018   
     length 5.54893   
     axis 180 -30 -90   XYZ
    dof rx ry rz
    limits (-60.0 90.0)
           (-90.0 90.0)
           (-90.0 90.0)
  end
  begin
     id 19
     name lradius
     direction 1 -4.48962e-011 -4.95754e-027   
     length 3.02898   
     axis 180 -30 -90   XYZ
    dof rx
    limits (-10.0 170.0)
  end
  begin
     id 20
     name lwrist
     direction 1 -4.48952e-011 -1.03764e-026   
     length 1.51449   
     axis 9.09556e-015 90 90   XYZ
    dof ry
    limits (-180.0 0.0)
 end
  begin
     id 21 
     name lhand
     direction 1 -4.4902e-011 -2.07528e-026   
     length 0.640951   
     axis 1.3242e-014 90 90   XYZ
    dof rx rz
    limits (-90.0 90.0)
           (-45.0 45.0)
  end
  begin
     id 22 
     name lfingers
     direction 1 -4.49014e-011 -4.15056e-026   
     length 0.516751   
     axis 2.64841e-014 90 90   XYZ
    dof rx
    limits (0.0 90.0)
  end
  begin
     id 23
     name lthumb
     direction 0.707107 -6.35008e-011 0.707107   
     length 0.741954   
     axis -90 45 2.85299e-015   XYZ
    dof rx rz
    limits (-45.0 45.0)
           (-45.0 45.0)
  end
  begin
     id 24 
     name rclavicle
     direction -0.888531 0.455324 -0.0565039   
     length 3.20126  
     axis 0 0 0   XYZ 
    dof ry rz
    limits (-10.0 20.0)
           (-20.0 0.0)
  end
  begin
     id 25 
     name rhumerus
     direction -1 -4.48946e-011 -8.98298e-028  
     length 5.3519   
     axis 180 30 90   XYZ
    dof rx ry rz
    limits (-90.0 60.0)
           (-90.0 90.0)
           (-90.0 90.0)
  end
  begin
     id 26 
     name rradius
     direction -1 -4.4899e-011 -3.18779e-027   
     length 3.02531   
     axis 180 30 90   XYZ
    dof rx
    limits (-10.0 170.0)
  end
  begin
     id 27 
     name rwrist
     direction -1 -4.4897e-011 -1.03764e-026   
     length 1.51266   
     axis 9.09556e-015 -90 -90   XYZ
    dof ry
    limits (-180.0 0.0)
  end
  begin
     id 28
     name rhand
     direction -1 -4.48941e-011 -2.07528e-026   
     length 0.78389   
     axis 1.3242e-014 -90 -90   XYZ
    dof rx rz
    limits (-90.0 90.0)
           (-45.0 45.0)
  end
  begin
     id 29
     name rfingers
     direction -1 -4.49012e-011 -4.15056e-026   
     length 0.631992   
     axis 2.64841e-014 -90 -90   XYZ
    dof rx
    limits (0.0 90.0)
  end
  begin
     id 30
     name rthumb
     direction -0.707107 -6.3496e-011 0.707107   
     length 0.907418   
     axis -90 -45 -2.85299e-015   XYZ
    dof rx rz
    limits (-45.0 45.0)
           (-45.0 45.0)
  end
:hierarchy
  begin
    root lhipjoint rhipjoint lowerback
    lhipjoint lfemur
    lfemur ltibia
    ltibia lfoot
    lfoot ltoes
    rhipjoint rfemur
    rfemur rtibia
    rtibia rfoot
    rfoot rtoes
    lowerback upperback
    upperback thorax
    thorax lowerneck lclavicle rclavicle
    lowerneck upperneck
    upperneck head
    lclavicle lhumerus
    lhumerus lradius
    lradius lwrist
    lwrist lhand lthumb
    lhand lfingers
    rclavicle rhumerus
    rhumerus rradius
    rradius rwrist
    rwrist rhand rthumb
    rhand rfingers
  end

#!OML:ASF E:\Style3\Style3.ASF
:FULLY-SPECIFIED
:DEGREES
268
root -0.367886 17.8283 0.195248 -165.877 69.3177 -181.4
lowerback -5.32344 0.394135 -2.35178
upperback -11.1334 1.35337 1.39414
thorax -8.85238 1.2564 2.70945
lowerneck -10.5368 -0.967059 -6.50114
upperneck 14.8369 -1.58346 9.63338
head 6.35324 -0.281796 4.04784
rclavicle -8.15017e-015 -2.78299e-014
rhumerus 17.8572 31.8589 -51.3526
rradius 133.325
rwrist -19.679
rhand 24.672 7.34999
rfingers 7.12502
rthumb 48.8598 -14.4515
lclavicle -8.15017e-015 -2.78299e-014
lhumerus -2.23099 -31.14 65.5698
lradius 133.834
lwrist 27.3855
lhand 18.6457 35.3742
lfingers 7.12502
lthumb 43.2714 59.5235
rfemur -13.744 4.01995 17.7742
rtibia 15.6133
rfoot -17.1031 -27.782
rtoes -9.56074
lfemur -18.1665 -35.6379 -7.21514
ltibia 4.54121
lfoot -3.35744 29.3392
ltoes -22.9818
269
root -0.376141 17.8312 0.187319 -165.939 71.6616 -181.464
lowerback -5.31459 0.244149 -2.51557
upperback -11.0913 1.12205 1.3875
thorax -8.7981 1.14194 2.80219
lowerneck -10.2355 -1.57635 -6.67504
upperneck 14.5866 -2.43163 9.87478
head 6.30051 -0.693887 4.07813
rclavicle -6.55989e-015 1.39149e-014
rhumerus 17.9818 31.8467 -51.3776
rradius 133.269
rwrist -19.4349
rhand 24.1599 7.27559
rfingers 7.12502
rthumb 48.3887 -14.7538
lclavicle -6.55989e-015 1.39149e-014
lhumerus -2.31869 -30.8982 65.4731
lradius 133.915
lwrist 27.3545
lhand 19.3172 35.435
lfingers 7.12502
lthumb 43.8985 59.3556
rfemur -14.2486 4.54806 17.3169
rtibia 15.7732
rfoot -16.4161 -26.5818
rtoes -11.003
lfemur -16.6872 -33.5487 -8.50442
ltibia 3.79245
lfoot -3.54514 28.9312
ltoes -22.1204
270
root -0.385515 17.8355 0.180408 -166.06 74.0079 -181.574
lowerback -5.2132 0.0893339 -2.65311
upperback -11.096 0.886774 1.38711
thorax -8.84848 1.02741 2.88513
lowerneck -10.1 -2.19935 -6.90619
upperneck 14.639 -3.29201 10.0741
head 6.37743 -1.10934 4.10882
rclavicle -6.11263e-015 -9.14409e-015
rhumerus 18.0513 31.7459 -51.4501
rradius 133.193
rwrist -19.751
rhand 24.2075 7.43154
rfingers 7.12502
rthumb 48.4326 -14.5769
lclavicle -6.11263e-015 -9.14409e-015
lhumerus -2.58161 -30.6919 65.347
lradius 134.094
lwrist 27.4774
lhand 19.5789 35.7277
lfingers 7.12502
lthumb 44.1426 59.5572
rfemur -14.75 5.14027 16.8636
rtibia 15.9372
rfoot -15.6744 -25.46
rtoes -13.2854
lfemur -15.0557 -31.4349 -9.7568
ltibia 2.69284
lfoot -3.55064 28.4969
ltoes -21.114
271
root -0.391365 17.8398 0.173223 -166.24 76.3352 -181.665
lowerback -5.11539 -0.0573616 -2.81654
upperback -11.0581 0.65962 1.40283
thorax -8.84951 0.917071 3.00053
lowerneck -10.1204 -2.86464 -7.18883
upperneck 14.9149 -4.20725 10.2539
head 6.56245 -1.54711 4.1377
rclavicle 1.36664e-014 -3.18055e-015
rhumerus 18.0681 31.7399 -51.513
rradius 133.054
rwrist -19.8625
rhand 23.937 7.46856
rfingers 7.12502
rthumb 48.1834 -14.6582
lclavicle 1.36664e-014 -3.18055e-015
lhumerus -2.70687 -30.6854 65.2007
lradius 134.026
lwrist 27.6813
lhand 19.2426 36.2482
lfingers 7.12502
lthumb 43.8289 60.1946
rfemur -15.1428 5.85449 16.4378
rtibia 16.0862
rfoot -15.0523 -24.4294
rtoes -15.9349
lfemur -12.5733 -29.318 -11.0919
ltibia 0.242335
lfoot -3.14581 27.9869
ltoes -19.4299
272
root -0.398745 17.8445 0.167948 -166.471 78.6359 -181.801
lowerback -5.03232 -0.270346 -3.11843
upperback -10.9674 0.344007 1.50496
thorax -8.77798 0.774918 3.28893
lowerneck -10.088 -3.48997 -7.67241
upperneck 14.9445 -5.06232 10.6529
head 6.66981 -1.95631 4.27143
rclavicle 3.32964e-015 2.38542e-015
rhumerus 18.2831 31.9977 -51.5661
rradius 132.958
rwrist -19.7082
rhand 23.6381 6.97216
rfingers 7.12502
rthumb 47.9079 -15.2835
lclavicle 3.32964e-015 2.38542e-015
lhumerus -2.51458 -30.4346 64.9395
lradius 133.8
lwrist 27.7581
lhand 19.1295 36.6778
lfingers 7.12502
lthumb 43.7233 60.6631
rfemur -15.5284 6.78797 16.0048
rtibia 16.2237
rfoot -14.7815 -23.4684
rtoes -16.5252
lfemur -11.5937 -27.1827 -12.0085
ltibia 2.22639e-014
lfoot -3.63083 27.526
ltoes -18.6416
273
root -0.409638 17.8492 0.158268 -166.441 80.9034 -181.836
lowerback -5.09945 -0.459233 -3.23767
upperback -10.8954 0.0683256 1.55111
thorax -8.63654 0.635361 3.41361
lowerneck -9.85759 -4.06596 -8.06837
upperneck 14.6061 -5.85137 11.0386
head 6.62386 -2.34358 4.38677
rclavicle -1.51076e-014 -2.5842e-014
rhumerus 18.5308 32.0988 -51.5755
rradius 132.957
rwrist -19.7699
rhand 23.4656 6.2058
rfingers 7.12502
rthumb 47.7488 -16.1234
lclavicle -1.51076e-014 -2.5842e-014
lhumerus -2.2985 -30.0818 64.6463
lradius 133.724
lwrist 27.9121
lhand 18.603 36.8435
lfingers 7.12502
lthumb 43.2315 61.0071
rfemur -16.1227 7.57249 15.5917
rtibia 16.366
rfoot -14.4599 -22.4266
rtoes -16.446
lfemur -11.0447 -25.0448 -12.7352
ltibia -3.4191e-014
lfoot -3.87541 27.1446
ltoes -18.7236
274
root -0.418256 17.8511 0.148901 -166.614 83.2906 -182.107
lowerback -5.18326 -0.473235 -3.2549
upperback -10.873 0.0221947 1.39219
thorax -8.5574 0.595396 3.25607
lowerneck -9.43166 -4.66947 -7.95425
upperneck 14.1223 -6.70501 11.0953
head 6.48267 -2.76821 4.3024
rclavicle -1.30204e-014 -2.98177e-015
rhumerus 18.3496 31.9498 -51.8479
rradius 133.013
rwrist -19.9002
rhand 23.4462 5.89856
rfingers 7.12502
rthumb 47.7309 -16.4389
lclavicle -1.30204e-014 -2.98177e-015
lhumerus -2.19354 -30.1612 64.3575
lradius 133.673
lwrist 28.0671
lhand 18.2693 36.429
lfingers 7.12502
lthumb 42.9195 60.7033
rfemur -16.8016 8.06833 15.1815
rtibia 16.533
rfoot -13.8567 -21.159
rtoes -18.0628
lfemur -10.5367 -22.7886 -13.4809
ltibia -3.97569e-014
lfoot -4.20468 26.7984
ltoes -18.4996
